PathFileType	4	(X/Y/Z)	Kaydara	
DataRate	CameraRate	NumFrames	NumMarkers	Units	OrigDataRate	OrigDataStartFrame	OrigNumFrames	
60.00	60.00	4	74	mm	60.00	490	164	
Frame#	Time	N_lasi			N_rasi			N_rpsi			N_lpsi			N_fneck			N_bneck			N_fhead			N_rhead			N_lhead			N_rshld			N_relbtop			N_relbext			N_relblow			N_rwrext			N_rwrtop			N_rwrlow			N_lshld			N_lelbext			N_lelblow			N_lelbtop			N_lwrext			N_lwrtop			N_lwrlow			N_rtopleg			N_ltopleg			N_rkneefr			N_rkneebk			N_rkneeis			N_lkneefr			N_lknssbk			N_lkneeis			N_rankfr			N_rankis			N_rankbk			N_lankfr			N_lankbk			N_lankis			D_lasi			D_rasi			D_rpsi			D_lpsi			D_fneck			D_bneck			D_fhead			D_rhead			D_lhead			D_rshld			D_relbtop			D_relbext			D_relblow			D_rwrext			D_rwrtop			D_rwrlow			D_lshld			D_lelbext			D_lelblow			D_lelbtop			D_lwrext			D_lwrtop			D_lwrlow			D_rtopleg			D_ltopleg			D_rkneefr			D_rkneebk			D_rkneeis			D_lkneefr			D_lknssbk			D_lkneeis			D_rankfr			D_rankis			D_rankbk			D_lankfr			D_lankbk			D_lankis			
		X1	Y1	Z1	X2	Y2	Z2	X3	Y3	Z3	X4	Y4	Z4	X5	Y5	Z5	X6	Y6	Z6	X7	Y7	Z7	X8	Y8	Z8	X9	Y9	Z9	X10	Y10	Z10	X11	Y11	Z11	X12	Y12	Z12	X13	Y13	Z13	X14	Y14	Z14	X15	Y15	Z15	X16	Y16	Z16	X17	Y17	Z17	X18	Y18	Z18	X19	Y19	Z19	X20	Y20	Z20	X21	Y21	Z21	X22	Y22	Z22	X23	Y23	Z23	X24	Y24	Z24	X25	Y25	Z25	X26	Y26	Z26	X27	Y27	Z27	X28	Y28	Z28	X29	Y29	Z29	X30	Y30	Z30	X31	Y31	Z31	X32	Y32	Z32	X33	Y33	Z33	X34	Y34	Z34	X35	Y35	Z35	X36	Y36	Z36	X37	Y37	Z37	X38	Y38	Z38	X39	Y39	Z39	X40	Y40	Z40	X41	Y41	Z41	X42	Y42	Z42	X43	Y43	Z43	X44	Y44	Z44	X45	Y45	Z45	X46	Y46	Z46	X47	Y47	Z47	X48	Y48	Z48	X49	Y49	Z49	X50	Y50	Z50	X51	Y51	Z51	X52	Y52	Z52	X53	Y53	Z53	X54	Y54	Z54	X55	Y55	Z55	X56	Y56	Z56	X57	Y57	Z57	X58	Y58	Z58	X59	Y59	Z59	X60	Y60	Z60	X61	Y61	Z61	X62	Y62	Z62	X63	Y63	Z63	X64	Y64	Z64	X65	Y65	Z65	X66	Y66	Z66	X67	Y67	Z67	X68	Y68	Z68	X69	Y69	Z69	X70	Y70	Z70	X71	Y71	Z71	X72	Y72	Z72	X73	Y73	Z73	X74	Y74	Z74	

103	8.150	477.97756	1073.58177	115.65509	734.51790	1103.18520	111.73195	772.12143	1148.03894	394.33079	416.96926	1130.07271	406.74965	533.57052	1508.92609	207.17838	583.48042	1606.98334	305.04871	475.65186	1678.10120	87.67208	617.74269	1709.58328	231.26259	463.59531	1694.71527	257.31911	822.29630	1468.60733	234.09182	943.01712	1159.22531	229.74415	898.46573	1137.92786	184.76221	907.07130	1191.09581	153.66274	899.83200	932.21786	8.44999	877.54242	962.80197	-21.47491	831.71745	964.94446	-7.63625	346.55682	1447.11395	382.90092	396.59836	1108.43666	433.26473	298.70245	1108.19489	395.54100	322.86491	1120.04555	480.02621	325.91324	817.52701	460.40577	330.35225	802.85866	414.79549	381.95621	814.40224	415.17788	844.09416	949.14337	238.73083	376.40278	974.63570	324.19601	808.82698	481.64680	334.66225	805.10353	529.68430	464.27155	679.49524	497.39048	377.08038	493.80669	540.86498	29.43413	456.30348	520.10811	156.34685	594.95213	512.00470	127.61083	850.26543	178.05809	615.43411	770.21500	170.98236	590.06084	769.49562	194.04295	670.68108	512.85000	179.14408	-7.84348	501.24516	156.92517	71.92231	579.31767	174.82229	30.13991	-659.04144	1049.36333	905.12444	-897.17461	1065.47569	1065.52361	-970.78369	1145.30495	861.80405	-787.92915	1126.50970	745.18677	-755.84175	1538.73734	961.13960	-831.38252	1617.02316	872.39189	-649.07730	1700.53757	1026.26457	-822.28096	1749.55093	985.18341	-721.94145	1732.71118	867.31903	-965.60226	1497.43820	1042.08611	-1067.40097	1169.34273	1034.54758	-994.72519	1154.68285	1024.46709	-1040.90950	1189.44183	1115.34927	-1078.58841	936.29318	1140.14534	-1039.28474	942.43362	1182.65312	-1001.76529	940.11726	1141.09215	-669.41452	1492.58957	728.09517	-664.76723	1159.66354	764.84657	-586.78787	1198.52142	713.33855	-648.90213	1153.33191	685.76096	-512.82211	959.13193	781.40144	-494.71870	981.85173	815.39528	-533.01144	986.69716	848.64464	-991.40373	1008.53783	1034.72343	-696.48521	1002.48154	763.72780	-870.99831	485.61310	1173.77129	-953.77090	538.04089	1120.94345	-863.54019	507.66563	1040.40787	-725.72258	467.50904	943.85498	-773.70636	485.23869	838.77548	-825.81535	469.30260	960.12680	-1047.73323	228.48989	980.64453	-1015.48668	249.55990	921.50040	-1093.72520	276.94504	935.64148	-795.84465	132.48500	933.77151	-828.67714	123.52907	866.97464	-861.46973	137.98320	945.34546 
104	8.167	467.35535	1076.69144	96.39865	722.94975	1103.81546	91.68790	765.94040	1147.44179	374.24492	413.08174	1133.70094	389.16348	526.97460	1511.38626	189.71935	576.56147	1609.10950	289.33411	467.48299	1679.99008	72.51361	610.13634	1711.68839	215.18009	455.97363	1696.78940	241.90426	814.64516	1470.18585	217.03238	933.52104	1159.63181	213.62112	889.83719	1138.46725	168.92551	897.84515	1191.58226	137.14636	890.80490	933.24875	-8.52813	868.27774	963.58810	-38.38231	822.59491	965.61043	-24.22915	339.69528	1449.03748	367.00542	390.77919	1109.77402	415.40977	292.23255	1109.30679	377.88490	317.37701	1121.00098	462.39182	319.03065	818.27515	444.19262	323.64109	803.27690	398.73295	374.99020	815.06645	398.65704	835.08034	950.12611	215.86777	369.77844	977.69852	308.56827	812.91115	480.71648	302.14254	810.30098	528.07182	431.82854	684.16580	495.81554	345.88039	487.77863	541.30718	12.73530	448.47454	522.13512	138.90506	588.75984	518.12614	108.87197	855.13687	187.85870	596.23756	777.09068	179.17831	573.28300	774.63745	205.91419	653.11028	512.57759	177.81601	-13.71213	499.63303	158.45133	66.24841	578.47187	175.82720	25.83288	-650.71053	1049.44138	908.70804	-884.91158	1065.94383	1075.43457	-963.21220	1145.84023	873.46710	-782.80922	1126.86523	752.52350	-747.85721	1539.28680	969.08051	-824.34319	1617.22107	880.94650	-640.67192	1701.80420	1032.85782	-814.53842	1750.25024	993.12881	-715.20264	1733.12943	874.34448	-957.55455	1497.70859	1051.21109	-1061.29921	1170.92628	1039.14207	-988.73512	1155.46532	1029.48502	-1035.63377	1189.19090	1120.66650	-1078.00278	936.12045	1139.14429	-1039.52637	940.50247	1182.57607	-1001.19530	938.37204	1141.43112	-663.29811	1493.27866	735.07744	-653.23944	1160.84335	773.70346	-576.37024	1200.50430	721.88118	-637.57854	1153.65097	695.22476	-496.80321	964.73511	794.99504	-479.07673	988.59085	828.36075	-517.38239	993.73283	861.82487	-979.83055	1009.00528	1046.87096	-691.42128	1002.55936	768.76717	-846.43944	488.89656	1187.51610	-932.44209	538.64117	1137.05765	-842.59979	508.18321	1055.85915	-722.25891	466.60027	946.06621	-771.04019	485.59788	841.56937	-821.78375	468.92502	963.58063	-1021.91322	221.35349	1011.17233	-992.58675	240.72788	950.67352	-1070.96840	266.81076	965.74471	-795.08751	132.15930	934.47601	-828.25264	124.00201	867.39548	-860.20012	137.97104	945.86563 
105	8.183	456.41281	1081.74545	78.53883	710.02266	1105.88509	72.47646	759.95956	1148.00102	354.44599	409.00082	1137.56889	376.03371	519.40430	1514.49738	174.08588	570.01766	1611.88095	273.94514	459.35760	1682.46643	57.69972	602.31209	1714.69711	199.52219	448.55465	1699.39774	227.02005	807.23740	1472.62024	199.87928	924.24889	1161.05362	197.75379	881.28891	1139.84657	153.56760	888.55545	1192.73338	121.33189	883.06618	934.44633	-24.50742	859.11499	963.94295	-53.55527	813.60214	965.65445	-38.81159	332.76340	1452.08328	351.58356	384.63547	1112.55875	396.63582	285.90790	1111.87035	359.57561	311.64293	1122.97333	444.16431	311.51871	820.38658	425.75012	316.06579	805.38956	380.25543	367.41730	817.16103	380.24433	824.99931	951.79245	192.85145	362.57092	980.18616	293.65032	815.94597	480.35770	266.57055	814.04411	526.73260	397.03274	686.97701	494.21551	313.02715	481.92749	540.43232	-1.28311	444.14921	522.50908	125.43298	583.65437	520.54859	93.26950	859.08302	198.82973	574.64085	782.26280	186.85102	551.82087	780.02731	218.09124	630.74333	512.05315	176.12301	-18.04542	499.41952	158.82329	62.35117	577.83195	176.17208	21.62004	-642.58255	1049.16801	912.39937	-872.48276	1066.04141	1084.90776	-955.82253	1145.99625	884.28444	-777.98882	1127.12883	759.83841	-739.51538	1539.75723	977.17613	-817.10770	1617.21634	889.60106	-631.92844	1702.62817	1039.23447	-806.45081	1750.47302	1001.36772	-708.56560	1733.35129	881.00471	-948.97385	1497.72690	1060.84618	-1055.34027	1172.58766	1044.36440	-983.05588	1155.97176	1034.73564	-1029.89792	1188.93387	1126.35269	-1076.77536	936.13388	1138.98949	-1038.88817	938.83331	1183.04245	-999.52499	937.25235	1143.01758	-657.37389	1493.79562	742.18765	-641.76071	1162.25822	783.36006	-566.24939	1202.33246	730.24139	-626.49548	1153.71536	704.48769	-481.47259	970.07217	807.93839	-463.98426	995.06248	840.55077	-502.28737	999.81148	874.06029	-967.75719	1009.83360	1059.32823	-686.55228	1002.71477	773.97484	-821.95335	492.47620	1200.32394	-910.79826	538.56415	1151.88828	-822.53288	508.37593	1068.88557	-718.70949	465.70778	948.75046	-768.07976	485.92442	844.84634	-818.29498	468.85815	966.96999	-994.35822	213.64334	1041.76811	-968.00255	231.00908	979.70726	-1046.45454	255.31769	996.12152	-794.27773	131.59943	934.90585	-827.72636	124.59067	867.92404	-860.04204	138.65832	946.12114 
106	8.200	445.44849	1087.72034	61.82267	696.81313	1109.13322	54.26088	753.53271	1149.84039	336.26053	402.56248	1141.28105	359.23599	557.72560	1516.75278	179.57607	563.45718	1614.82895	258.78714	450.96703	1685.50186	43.41391	594.74350	1718.24112	184.06012	441.32397	1702.27264	212.53347	800.05989	1475.55984	183.15712	915.19630	1163.36281	182.47904	872.94220	1141.93642	138.75912	879.44954	1194.41803	106.02367	874.57085	934.87473	-37.60739	850.07721	963.86375	-67.09186	804.71718	964.87434	-51.56698	325.83725	1456.10001	336.30085	377.95471	1115.88615	377.21233	279.53119	1115.62302	341.11355	304.78386	1126.03012	425.17761	303.21138	823.46672	405.07484	307.81368	808.68996	359.43096	359.24232	820.21141	359.75571	815.54535	953.01880	170.63633	355.71659	982.33154	279.48057	816.71623	480.97145	229.25175	816.16318	525.65639	360.00458	688.80463	492.16900	277.45590	476.36745	538.62095	-12.48836	441.96907	522.39262	115.93655	580.96104	521.69834	79.78014	860.73296	208.25493	551.81942	784.10179	194.01169	527.40337	782.94632	230.22249	604.60358	511.56445	174.42287	-21.41732	500.26459	158.61390	59.80197	577.59541	175.89752	17.56988	-635.06371	1048.99765	915.62592	-860.49812	1066.17729	1094.37180	-948.48549	1146.10443	895.10078	-773.24417	1127.20047	767.14783	-730.99861	1539.75586	985.26009	-809.72191	1616.96701	898.58215	-622.90691	1703.15353	1045.82191	-798.07854	1750.44220	1009.80110	-701.78749	1733.16467	887.91237	-939.71352	1497.59247	1070.91713	-1049.25980	1174.31129	1050.25314	-977.27989	1156.50658	1040.10574	-1023.43079	1188.56628	1132.54753	-1074.93355	936.37787	1139.70299	-1037.31888	937.41135	1184.06258	-997.95143	935.97313	1143.41270	-651.43600	1494.02084	749.33960	-630.52567	1163.13934	792.35779	-556.41125	1203.93494	738.62091	-615.73830	1153.73901	713.55644	-466.73260	974.95811	820.08102	-449.52923	1001.09703	852.07611	-487.84225	1005.88585	885.67970	-956.41617	1010.06729	1071.29745	-681.72798	1002.83165	779.29413	-797.72705	495.96176	1212.00294	-888.92799	537.87918	1165.35728	-803.57979	508.26382	1079.98817	-714.82422	464.84592	951.44943	-764.67728	486.16989	848.07632	-814.19487	468.71883	970.53329	-965.37224	205.59450	1072.28958	-941.56624	220.78457	1008.79288	-1020.38162	243.23824	1026.61926	-793.45039	131.94457	935.63431	-827.04842	125.25133	868.49060	-859.25140	139.53499	947.11281 
